Coordinates
version=1
nRows=65
nColumns=12
inDegrees=yes

Units are S.I. units (second, meters, Newtons, ...)
Angles are in degrees

endheader
time	SC_y	SC_z	SC_x	AC_y	AC_z	AC_x	GH_y	GH_z	GH_yy	EL_x	PS_y
       0.0              -17.16         0.6836          66.53          57.71         -14.08          3.464         -158.5          55.03         -81.53          23.48          14.89
   0.02603              -17.16         0.6852          66.52          57.71         -14.07          3.462         -158.5          55.02         -81.54          23.48           14.9
   0.05207              -17.16         0.6868          66.51          57.71         -14.07           3.46         -158.5           55.0         -81.55          23.48          14.92
    0.0781              -17.17         0.6886           66.5          57.72         -14.07          3.458         -158.5          54.99         -81.57          23.48          14.93
    0.1041              -17.17         0.6905          66.49          57.72         -14.06          3.456         -158.5          54.98         -81.58          23.48          14.94
    0.1302              -17.18         0.6925          66.48          57.72         -14.06          3.454         -158.5          54.97          -81.6          23.48          14.96
    0.1562              -17.18         0.6946          66.47          57.72         -14.06          3.452         -158.5          54.95         -81.62          23.48          14.98
    0.1822              -17.19         0.6969          66.46          57.72         -14.05          3.449         -158.4          54.94         -81.64          23.48          14.99
    0.2083              -17.19         0.6993          66.45          57.73         -14.05          3.447         -158.4          54.92         -81.66          23.48          15.01
    0.2343               -17.2         0.7019          66.44          57.73         -14.04          3.444         -158.4           54.9         -81.68          23.48          15.03
    0.2603              -17.21         0.7047          66.42          57.73         -14.03          3.441         -158.4          54.88          -81.7          23.48          15.06
    0.2864              -17.21         0.7077          66.41          57.73         -14.03          3.438         -158.4          54.86         -81.73          23.48          15.08
    0.3124              -17.22          0.711          66.39          57.74         -14.02          3.434         -158.3          54.84         -81.75          23.48           15.1
    0.3384              -17.23         0.7145          66.38          57.74         -14.01           3.43         -158.3          54.81         -81.78          23.48          15.13
    0.3645              -17.24         0.7183          66.36          57.74         -14.01          3.426         -158.3          54.79         -81.81          23.48          15.16
    0.3905              -17.25         0.7225          66.34          57.75          -14.0          3.422         -158.2          54.76         -81.85          23.48          15.19
    0.4165              -17.26          0.727          66.32          57.75         -13.99          3.417         -158.2          54.73         -81.89          23.48          15.23
    0.4426              -17.27         0.7319          66.29          57.76         -13.98          3.412         -158.2          54.69         -81.93          23.49          15.27
    0.4686              -17.28         0.7372          66.27          57.76         -13.97          3.406         -158.1          54.66         -81.97          23.49          15.31
    0.4946              -17.29          0.743          66.24          57.77         -13.96            3.4         -158.1          54.62         -82.02          23.49          15.35
    0.5207              -17.31         0.7495          66.21          57.77         -13.94          3.393         -158.0          54.57         -82.07          23.49           15.4
    0.5467              -17.32         0.7565          66.17          57.78         -13.93          3.385         -158.0          54.52         -82.13          23.49          15.46
    0.5727              -17.34         0.7643          66.14          57.79         -13.91          3.377         -157.9          54.47          -82.2          23.49          15.52
    0.5987              -17.36          0.773          66.09           57.8          -13.9          3.367         -157.8          54.41         -82.27          23.49          15.59
    0.6248              -17.38         0.7826          66.05          57.81         -13.88          3.357         -157.8          54.34         -82.35           23.5          15.66
    0.6508              -17.41         0.7933           66.0          57.82         -13.85          3.346         -157.7          54.27         -82.44           23.5          15.75
    0.6768              -17.44         0.8054          65.94          57.83         -13.83          3.333         -157.6          54.18         -82.54           23.5          15.84
    0.7029              -17.47         0.8189          65.87          57.84          -13.8          3.318         -157.5          54.09         -82.65           23.5          15.95
    0.7289               -17.5         0.8342           65.8          57.86         -13.77          3.302         -157.4          53.98         -82.78          23.51          16.07
    0.7549              -17.54         0.8515          65.72          57.87         -13.74          3.283         -157.2          53.86         -82.92          23.51           16.2
     0.781              -17.59         0.8713          65.62          57.89          -13.7          3.262         -157.1          53.73         -83.09          23.51          16.36
     0.807              -17.64          0.894          65.51          57.92         -13.65          3.237         -156.9          53.57         -83.28          23.52          16.53
     0.833               -17.7         0.9203          65.38          57.94          -13.6          3.209         -156.7          53.39         -83.49          23.52          16.74
    0.8591              -17.77         0.9507          65.24          57.97         -13.54          3.176         -156.5          53.17         -83.75          23.53          16.97
    0.8851              -17.85         0.9864          65.07          58.01         -13.46          3.138         -156.2          52.93         -84.04          23.54          17.25
    0.9111              -17.95          1.028          64.86          58.05         -13.38          3.092         -155.9          52.64         -84.39          23.55          17.58
    0.9372              -18.06          1.078          64.62           58.1         -13.28          3.039         -155.5          52.29         -84.81          23.56          17.97
    0.9632               -18.2          1.138          64.33          58.15         -13.16          2.974         -155.0          51.87         -85.31          23.57          18.44
    0.9892              -18.37          1.211          63.98          58.22         -13.01          2.896         -154.5          51.37         -85.91          23.58           19.0
     1.015              -18.57          1.299          63.56          58.31         -12.83          2.801         -153.8          50.76         -86.65           23.6          19.69
     1.041              -18.82          1.409          63.03          58.42         -12.61          2.683         -152.9           50.0         -87.56          23.63          20.55
     1.067              -19.14          1.545          62.37          58.55         -12.33          2.536         -151.9          49.06         -88.69          23.65          21.61
     1.093              -19.53          1.716          61.54          58.72         -11.98          2.352         -150.5          47.87         -90.12          23.69          22.95
     1.119              -20.03          1.935          60.49          58.93         -11.54          2.117         -148.9          46.35         -91.93          23.73          24.65
     1.145              -20.67          2.214          59.14           59.2         -10.97          1.816         -146.7          44.42         -94.25          23.79          26.83
     1.171               -21.5          2.572          57.42          59.55         -10.25           1.43         -143.9          41.93         -97.24          23.86          29.62
     1.197              -22.55           3.03          55.21           60.0         -9.319         0.9374         -140.4          38.76         -101.0          23.96          33.19
     1.224              -23.87          3.605          52.43          60.56         -8.152         0.3177         -135.9          34.77         -105.8          24.08          37.68
      1.25              -25.48          4.307          49.05          61.24          -6.73        -0.4374         -130.5           29.9         -111.7          24.22          43.15
     1.276              -27.35           5.12          45.13          62.03         -5.081         -1.313         -124.2          24.26         -118.4          24.39           49.5
     1.302              -29.38            6.0          40.88          62.89         -3.296         -2.261         -117.4          18.16         -125.8          24.57          56.36
     1.328               -31.4           6.88          36.63          63.75         -1.511         -3.208         -110.6          12.06         -133.1          24.75          63.23
     1.354              -33.27          7.693          32.71          64.54         0.1374         -4.084         -104.3          6.418         -139.8          24.92          69.57
      1.38              -34.88          8.395          29.33          65.22           1.56         -4.839         -98.85          1.555         -145.7          25.06          75.04
     1.406               -36.2           8.97          26.55          65.78          2.727         -5.459          -94.4         -2.436         -150.5          25.18          79.53
     1.432              -37.26          9.428          24.34          66.23          3.655         -5.951         -90.85          -5.61         -154.3          25.28           83.1
     1.458              -38.08          9.787          22.62          66.58          4.382         -6.337         -88.08         -8.095         -157.3          25.35           85.9
     1.484              -38.72          10.07          21.27          66.85          4.948         -6.638         -85.92         -10.03         -159.6          25.41          88.08
      1.51              -39.22          10.28          20.22          67.06           5.39         -6.873         -84.23         -11.54         -161.4          25.45          89.78
     1.536              -39.62          10.46          19.39          67.23          5.738         -7.058          -82.9         -12.73         -162.8          25.49          91.12
     1.562              -39.93          10.59          18.73          67.36          6.015         -7.204         -81.85         -13.68         -163.9          25.52          92.18
     1.588              -40.18           10.7           18.2          67.47          6.236         -7.322          -81.0         -14.44         -164.9          25.54          93.03
     1.614              -40.39          10.79          17.78          67.56          6.416         -7.417         -80.31         -15.05         -165.6          25.56          93.72
      1.64              -40.55          10.86          17.43          67.63          6.563         -7.495         -79.75         -15.55         -166.2          25.57          94.29
     1.666              -40.69          10.92          17.14          67.69          6.684          -7.56         -79.29         -15.97         -166.7          25.58          94.75
